<svg xmlns="http://www.w3.org/2000/svg" xmlns:xlink="http://www.w3.org/1999/xlink" version="1.1" x="0px" y="0px" viewBox="0 0 100 125" enable-background="new 0 0 100 100" xml:space="preserve"><g><path d="M75.298,47.178c0.038-2.055-0.726-3.999-2.151-5.478c-1.426-1.477-3.34-2.311-5.394-2.348c-0.01,0-0.132-0.001-0.144-0.001   c-1.562,0-3.023,0.478-4.243,1.298l-0.002-27.283c0.037-2.055-0.728-3.999-2.152-5.477c-1.426-1.477-3.341-2.311-5.393-2.348   c-0.011,0-0.133-0.001-0.144-0.001c-4.159,0-7.604,3.386-7.678,7.579L48,37.1c-1.21-0.808-2.625-1.26-4.116-1.287   c-0.01,0-0.133-0.001-0.143-0.001c-3.315,0-6.171,2.154-7.233,5.151c-1.3-1.011-2.881-1.58-4.559-1.61   c-0.01,0-0.133-0.001-0.143-0.001c-4.159,0-7.603,3.386-7.678,7.58l0.005,10.925c-0.021,1.164,0.227,2.269,0.674,3.267   c-0.012,0.08-0.024,0.16-0.024,0.243v9.68c0,13.871,11.286,25.155,25.158,25.155c13.69,0,24.857-10.993,25.147-24.613   C75.222,71.344,75.298,47.178,75.298,47.178z M55.756,8.985C55.756,8.985,55.756,8.985,55.756,8.985   c1.135,0.02,2.191,0.479,2.978,1.294c0.786,0.816,1.208,1.89,1.188,3.055l0.004,37.869c-1.206-0.717-2.572-1.144-4.012-1.225   c-1.575-0.097-3.102,0.235-4.469,0.926L51.441,13.15C51.481,10.854,53.38,8.985,55.756,8.985z M60.512,56.407l-0.521,0.455   c-0.267,0.239-0.679,0.214-0.919-0.056l-2.983-3.332c1.296,0.164,2.482,0.76,3.363,1.747L60.512,56.407z M43.821,39.256   c0,0,0.001,0,0.001,0c1.133,0.02,2.191,0.479,2.977,1.294c0.786,0.816,1.208,1.89,1.187,3.055l0.002,10.397   c-0.554,0.854-0.952,1.783-1.182,2.748c-0.226-0.257-0.528-0.45-0.886-0.537c-1.272-0.308-2.569-0.324-3.854-0.048   c-0.93,0.199-1.521,1.115-1.322,2.044c0.199,0.93,1.115,1.521,2.044,1.323c0.775-0.166,1.558-0.158,2.323,0.027   c0.136,0.032,0.272,0.049,0.406,0.049c0.387,0,0.756-0.133,1.054-0.362c0.026,0.557,0.104,1.113,0.235,1.658   c-0.775,0.813-1.858,1.328-3.056,1.328l-0.077-0.001c-1.133-0.02-2.189-0.48-2.976-1.297c-0.787-0.814-1.208-1.886-1.187-3.048   l-0.004-14.467C39.547,41.125,41.446,39.256,43.821,39.256z M27.572,46.962c0.041-2.298,1.94-4.167,4.314-4.167   c0,0,0.001,0,0.001,0c1.134,0.021,2.191,0.481,2.978,1.296s1.208,1.889,1.187,3.057l0.004,10.922   c-0.041,2.296-1.943,4.163-4.24,4.163l-0.077-0.001c-2.338-0.042-4.206-1.978-4.164-4.346L27.572,46.962z M71.673,70.873   c-0.006,0.058-0.017,0.113-0.017,0.173c0,0.166-0.022,0.325-0.025,0.489c-0.264,11.745-9.882,21.223-21.689,21.223   c-11.974,0-21.715-9.739-21.715-21.712v-6.269c1.034,0.549,2.204,0.875,3.452,0.898c0.01,0,0.121-0.008,0.139,0.001   c2.389,0,4.539-1.119,5.954-2.863c0.142,0.176,0.29,0.349,0.449,0.514c1.425,1.477,3.34,2.311,5.393,2.349   c0.011,0,0.123-0.008,0.138,0.001c1.711,0,3.296-0.578,4.58-1.544c0.014,0.019,0.03,0.037,0.045,0.056   c-0.186,0.274-0.294,0.606-0.294,0.963c0,5.183-1.856,10.2-5.226,14.128c-0.619,0.722-0.536,1.808,0.186,2.428   c0.325,0.277,0.723,0.414,1.12,0.414c0.485,0,0.967-0.203,1.307-0.601c3.368-3.925,5.422-8.791,5.925-13.907l8.263,9.229   c0.34,0.379,0.811,0.572,1.282,0.572c0.41,0,0.82-0.145,1.148-0.439c0.55-0.49,0.696-1.252,0.445-1.901   c-0.073-0.188-0.168-0.37-0.312-0.529L51.37,62.426c-1.986-2.229-1.792-5.657,0.436-7.643c0.224-0.2,0.47-0.366,0.718-0.523   c0.058,0.292,0.164,0.577,0.377,0.815l3.604,4.026c0.809,0.906,1.935,1.368,3.062,1.368c0.966,0,1.933-0.339,2.702-1.025   l0.541-0.472l7.491,8.37C71.17,68.316,71.656,69.57,71.673,70.873L71.673,70.873z M69.791,61.612l-1.952-2.183   c0.315,0.017,0.632,0.055,0.944,0.131c0.136,0.032,0.272,0.049,0.406,0.049c0.776,0,1.481-0.529,1.672-1.317   c0.223-0.924-0.344-1.854-1.269-2.078c-1.272-0.308-2.569-0.324-3.854-0.048c-0.22,0.047-0.418,0.137-0.594,0.254l-1.767-1.974   l-0.003-7.486c0.041-2.296,1.939-4.165,4.314-4.165c0.001,0,0.001,0,0.001,0c1.135,0.021,2.191,0.481,2.977,1.296   c0.787,0.815,1.209,1.889,1.188,3.057L71.86,58.07C71.833,59.572,71.001,60.879,69.791,61.612z"/><path d="M53.909,24.19h3.3c0.95,0,1.722-0.771,1.722-1.722c0-0.951-0.771-1.722-1.722-1.722h-3.3c-0.95,0-1.722,0.771-1.722,1.722   C52.188,23.419,52.959,24.19,53.909,24.19z"/><path d="M53.909,39.11h3.3c0.95,0,1.722-0.771,1.722-1.722c0-0.95-0.771-1.721-1.722-1.721h-3.3c-0.95,0-1.722,0.771-1.722,1.721   C52.188,38.339,52.959,39.11,53.909,39.11z"/><path d="M30.594,59.533c0.776-0.166,1.558-0.158,2.324,0.027c0.136,0.032,0.271,0.049,0.406,0.049c0.776,0,1.481-0.529,1.672-1.317   c0.224-0.924-0.344-1.854-1.269-2.078c-1.272-0.308-2.568-0.324-3.854-0.048c-0.93,0.199-1.521,1.115-1.322,2.044   C28.749,59.14,29.663,59.73,30.594,59.533z"/></g><text x="0" y="115" fill="#000000" font-size="5px" font-weight="bold" font-family="'Helvetica Neue', Helvetica, Arial-Unicode, Arial, Sans-serif">Created by Alexander James Wright</text><text x="0" y="120" fill="#000000" font-size="5px" font-weight="bold" font-family="'Helvetica Neue', Helvetica, Arial-Unicode, Arial, Sans-serif">from the Noun Project</text></svg>